<svg xmlns="http://www.w3.org/2000/svg" width="1200" height="630" viewBox="0 0 1200 630">
  <rect width="1200" height="630" fill="#ffffff"/>
  <g transform="translate(510.5, 291)">
    <svg xmlns="http://www.w3.org/2000/svg" width="179" height="48" fill="none" viewBox="0 0 179 48"><path fill="#099250" d="M25.8 35.787c-3.5-1.3-7.1-1.5-10.4-.6-2.3.6-4.5 1.8-6.5 3.3l-1.4 1.2-.4.4.9.8c.1 0 .1.1.2.2.2.2.4.3.7.5l.6.4.6-.5c.1-.1.3-.3.5-.4 1.8-1.5 3.8-2.5 5.9-3 2.7-.7 5.6-.6 8.5.5 2.4.9 7.3 2 13.2-.5l.2-.1.3-.3c0-.1.1-.1.2-.2.5-.6 1-1.2 1.4-1.9l2-3.1-3.2 1.8c-4.7 2.6-9 3.1-13.3 1.5M12.1 24.988c2.7-.7 5.6-.6 8.5.5 3.2 1.2 11.4 2.9 20.6-5.4l1.5-1.5.1-.1.4-.4-.2-.5c-.1-.4-.3-.9-.5-1.4l-.5-1.4-1 1c-.1.2-.3.3-.5.5-4.4 4.5-11.2 9.1-19 6.3-3.5-1.3-7.1-1.5-10.4-.6-3.2.9-6 2.6-8.6 5v-.1l-1.5 1.6c0 .1-.1.1-.2.2l-.3.3.1.4c.1.5.3 1 .4 1.5l.6 1.6 1-1.3c.1-.2.3-.3.4-.5 2.1-1.9 5-4.6 9.1-5.7"/><path fill="#099250" d="M2.4 23.187c2.3-2.4 4.9-3.9 7.7-4.7 2.7-.7 5.6-.6 8.5.5 9 3.3 16.8-2.1 20.2-5l1.3-1.3.5-.4-.4-.6c-.3-.3-.5-.7-.8-1.1l-.6-.8-.7.7-.4.4c-4.2 4-10.7 8.1-18.1 5.3-3.5-1.3-7.1-1.5-10.4-.6-2.1.6-4.1 1.6-6.1 2.9l-2.1 1.7-.5.5-.2.2v.3c-.1.7-.1 1.4-.2 2l-.1 2.5 1.7-1.8c.2-.2.4-.5.7-.7M28.7 42.588l-.2.6zc-.3-.1-.5-.2-.8-.3-3.5-1.3-7.1-1.5-10.4-.6-.7.2-1.4.4-2.1.7l-2.4 1.1-.6.3 2 .7 1.8.6.3.1.3-.1c.3-.1.6-.3.9-.3.2 0 .4-.1.6-.2 2.4-.6 5-.6 7.8.3.3.1.5.2.8.3l.5.2.3-.1c.7-.2 1.5-.4 2.1-.7l2.8-1-2.9-.7c-.3-.1-.7-.2-1-.3M44 21.888l-1.5 1.5-.6.6c-4.1 3.9-10.7 8.1-18.1 5.3-3.5-1.3-7.1-1.5-10.4-.6-3.1.9-5.9 2.5-8.4 4.9l-1.3 1.4-.4.5.4.6c.3.4.5.7.7 1.1l.6.9.7-.9.4-.4c2.4-2.6 5-4.2 8-5 2.7-.7 5.6-.6 8.5.5 2.5.9 5.1 1.2 7.7.9 4.6-.5 9.2-3.1 12.6-6 .2-.2.4-.3.6-.5l.3-.3v-.3c0-.6.1-1.3.1-1.9z"/><path fill="#099250" d="m6 12.688-.3-.6zc.6-.3 1.3-.5 1.9-.7 2.7-.7 5.6-.6 8.5.5 1.9.7 3.8 1 5.9 1 4.2 0 8.4-1.5 12.3-4.4l1.5-1.2.5-.4-.9-.7c-.3-.3-.7-.6-1.1-.8l-.6-.4-.5.4c-.2.1-.3.3-.5.4-5.3 4-10.6 5.1-15.6 3.2-3.6-1.3-7.2-1.6-10.8-.5-.3.1-.6.2-1 .3l-.2.1-.3.3c0 .1-.1.1-.2.2-.4.6-.9 1.1-1.3 1.7l-1.9 2.9 3.1-1.6c.5 0 .9-.2 1.2-.3M14.2 5.887l.3.1c1.3.5 3.3 1 5.8 1 2.6 0 5.1-.6 7.6-1.6l3.1-1.5-2.1-.7c-.6-.2-1.2-.4-1.9-.5h-.3l-.3.1c-.3.1-.6.3-.9.4-3 1.1-6 1.3-8.9.5l-.9-.3-.3-.1-.3.1c-.6.2-1.2.4-1.8.7l-2.3 1 2.4.7c.2-.1.5 0 .8.1"/><path fill="#101828" d="M61.28 33.91h-4.614l7.03-20.365h5.548l7.02 20.364h-4.613L66.55 18.2h-.16zm-.288-8.005h10.897v3.36H60.992zM82.872 13.545V33.91h-4.236V13.545zM94.388 18.636v3.182h-9.197v-3.182zm-7.11-3.659h4.237v14.239q0 .587.178.915.18.317.498.447.327.13.755.13.3 0 .597-.05l.457-.09.667 3.152q-.319.1-.895.229-.577.14-1.402.169-1.532.06-2.685-.408-1.143-.467-1.78-1.452-.636-.984-.626-2.485zM102.728 32.805v-14.08h3.56v14.08zm-5.26-5.26v-3.56h14.08v3.56zM126.84 19.402q-.119-1.203-1.024-1.87-.905-.666-2.456-.666-1.054 0-1.78.299-.726.288-1.113.805a1.94 1.94 0 0 0-.378 1.173q-.02.547.228.955.26.408.706.706.448.288 1.035.507.586.21 1.252.358l1.83.438q1.332.297 2.446.795 1.113.497 1.929 1.223a5.1 5.1 0 0 1 1.263 1.71q.457.984.467 2.257-.01 1.87-.955 3.242-.934 1.362-2.704 2.118-1.76.745-4.246.745-2.466 0-4.295-.755-1.82-.756-2.844-2.238-1.014-1.49-1.064-3.688h4.166q.07 1.023.587 1.71.527.676 1.402 1.024.885.338 1.998.338 1.095 0 1.9-.318.815-.318 1.262-.885a2.04 2.04 0 0 0 .448-1.303q0-.685-.408-1.153-.398-.468-1.173-.795a12 12 0 0 0-1.879-.597l-2.218-.557q-2.575-.626-4.066-1.959-1.493-1.332-1.482-3.59-.01-1.849.984-3.23 1.005-1.383 2.755-2.158 1.75-.776 3.977-.776 2.266 0 3.957.776 1.7.776 2.645 2.157.945 1.383.975 3.202zM138.297 25.08v8.83h-4.236V13.544h4.117v7.786h.179q.517-1.352 1.67-2.118 1.154-.776 2.894-.776 1.59 0 2.774.697 1.193.685 1.849 1.978.667 1.283.657 3.073v9.724h-4.236V24.94q.01-1.411-.716-2.197-.716-.786-2.009-.786-.864 0-1.531.368a2.6 2.6 0 0 0-1.034 1.074q-.368.696-.378 1.68M151.534 33.91V18.635h4.236V33.91zm2.128-17.242q-.945 0-1.621-.627-.666-.636-.666-1.521 0-.875.666-1.502a2.28 2.28 0 0 1 1.621-.636q.945 0 1.611.636.675.626.676 1.502 0 .885-.676 1.521a2.27 2.27 0 0 1-1.611.627M168.89 18.636v3.182h-10.94v-3.182zm-8.782 15.273V17.533q0-1.66.646-2.755a4.15 4.15 0 0 1 1.79-1.64q1.133-.547 2.575-.547.975 0 1.78.149.815.15 1.213.268l-.756 3.182a5 5 0 0 0-.616-.149 4 4 0 0 0-.736-.07q-.934 0-1.303.438-.368.427-.368 1.203V33.91zM178.087 18.636v3.182h-9.197v-3.182zm-7.109-3.659h4.236v14.239q0 .587.179.915a1 1 0 0 0 .497.447q.329.13.756.13.297 0 .596-.05l.458-.09.666 3.152q-.318.1-.895.229-.577.14-1.402.169-1.531.06-2.685-.408-1.143-.467-1.78-1.452-.636-.984-.626-2.485z"/></svg>
  </g>
</svg>

